<svg xmlns="http://www.w3.org/2000/svg" xmlns:xlink="http://www.w3.org/1999/xlink" width="45" zoomAndPan="magnify" viewBox="0 0 33.75 30.000001" height="40" preserveAspectRatio="xMidYMid meet" version="1.0"><defs><clipPath id="d4483e1c31"><path d="M 1.519531 0 L 32 0 L 32 28.304688 L 1.519531 28.304688 Z M 1.519531 0 " clip-rule="nonzero"/></clipPath><clipPath id="0f4c4f9067"><path d="M 1.519531 0 L 32 0 L 32 28.304688 L 1.519531 28.304688 Z M 1.519531 0 " clip-rule="nonzero"/></clipPath></defs><g clip-path="url(#d4483e1c31)"><path fill="#f6db6e" d="M 29.902344 16.0625 L 31.921875 16.039062 L 31.898438 14.023438 L 31.878906 12.007812 L 29.871094 12.03125 L 29.867188 11.691406 L 29.851562 11.691406 L 29.835938 10.015625 L 27.828125 10.035156 L 27.824219 9.695312 L 27.8125 9.699219 L 27.792969 8.023438 L 25.789062 8.042969 L 25.78125 7.707031 L 25.769531 7.707031 L 25.75 6.03125 L 23.742188 6.050781 L 23.738281 5.714844 L 23.726562 5.714844 L 23.707031 4.035156 L 21.703125 4.058594 L 21.699219 3.71875 L 21.683594 3.71875 L 21.667969 2.046875 L 19.660156 2.066406 L 19.65625 1.726562 L 19.644531 1.726562 L 19.625 0.0507812 L 15.585938 0.0976562 L 15.609375 2.113281 L 13.585938 2.132812 L 13.609375 4.148438 L 11.589844 4.171875 L 11.613281 6.1875 L 11.632812 8.203125 L 9.617188 8.222656 L 7.59375 8.246094 L 5.574219 8.269531 L 5.597656 10.28125 L 3.578125 10.304688 L 3.597656 12.320312 L 1.582031 12.34375 L 1.601562 14.355469 L 1.625 16.375 L 3.644531 16.351562 L 3.667969 18.363281 L 5.6875 18.34375 L 5.710938 20.355469 L 7.730469 20.332031 L 9.75 20.3125 L 11.769531 20.289062 L 11.792969 22.304688 L 11.8125 24.320312 L 13.832031 24.296875 L 13.855469 26.3125 L 15.875 26.289062 L 15.898438 28.304688 L 17.917969 28.28125 L 19.9375 28.261719 L 19.917969 26.246094 L 21.933594 26.222656 L 21.914062 24.207031 L 23.933594 24.1875 L 23.910156 22.171875 L 25.929688 22.148438 L 25.910156 20.132812 L 27.925781 20.109375 L 27.90625 18.097656 L 29.925781 18.074219 Z M 29.902344 16.0625 " fill-opacity="1" fill-rule="nonzero"/></g><path fill="#fffcf3" d="M 25.816406 12.097656 L 27.835938 12.074219 L 27.859375 14.09375 L 25.839844 14.117188 Z M 25.816406 12.097656 " fill-opacity="1" fill-rule="nonzero"/><path fill="#fffcf3" d="M 23.773438 10.09375 L 25.796875 10.074219 L 25.816406 12.09375 L 23.796875 12.117188 Z M 23.773438 10.09375 " fill-opacity="1" fill-rule="nonzero"/><path fill="#fffcf3" d="M 21.644531 8.324219 L 23.664062 8.324219 L 23.664062 10.34375 L 21.644531 10.34375 Z M 21.644531 8.324219 " fill-opacity="1" fill-rule="nonzero"/><path fill="#fffcf3" d="M 17.644531 4.105469 L 19.667969 4.082031 L 19.691406 6.105469 L 17.667969 6.125 Z M 17.644531 4.105469 " fill-opacity="1" fill-rule="nonzero"/><g clip-path="url(#0f4c4f9067)"><path fill="#3d3b52" d="M 29.941406 16.132812 L 31.964844 16.109375 L 31.941406 14.046875 L 31.917969 11.988281 L 29.898438 12.011719 L 29.875 9.988281 L 27.855469 10.011719 L 27.832031 7.992188 L 25.8125 8.015625 L 25.792969 5.996094 L 23.769531 6.015625 L 23.746094 3.996094 L 21.726562 4.019531 L 21.703125 2 L 19.683594 2.019531 L 19.664062 0 L 17.601562 0.0234375 L 15.542969 0.046875 L 15.5625 2.066406 L 13.542969 2.089844 L 13.566406 4.109375 L 11.546875 4.132812 L 11.570312 6.191406 L 11.589844 8.171875 L 9.613281 8.191406 L 7.589844 8.214844 L 5.53125 8.238281 L 5.550781 10.257812 L 3.53125 10.28125 L 3.554688 12.300781 L 1.535156 12.324219 L 1.558594 14.382812 L 1.578125 16.449219 L 3.597656 16.425781 L 3.621094 18.445312 L 5.644531 18.421875 L 5.664062 20.441406 L 7.726562 20.417969 L 9.746094 20.394531 L 11.722656 20.375 L 11.746094 22.355469 L 11.769531 24.414062 L 13.789062 24.394531 L 13.808594 26.410156 L 15.832031 26.390625 L 15.851562 28.410156 L 19.976562 28.363281 L 19.957031 26.34375 L 21.976562 26.320312 L 21.953125 24.300781 L 23.972656 24.277344 L 23.949219 22.257812 L 25.972656 22.234375 L 25.949219 20.210938 L 27.96875 20.191406 L 27.945312 18.171875 L 29.964844 18.148438 Z M 27.839844 16.074219 L 27.839844 16.082031 L 27.863281 18.09375 L 25.84375 18.117188 L 25.867188 20.136719 L 23.84375 20.15625 L 23.867188 22.179688 L 21.847656 22.203125 L 21.871094 24.21875 L 19.851562 24.242188 L 19.871094 26.261719 L 17.890625 26.285156 L 15.914062 26.304688 L 15.890625 24.285156 L 13.871094 24.308594 L 13.847656 22.332031 L 13.828125 20.308594 L 13.804688 18.25 L 11.746094 18.273438 L 9.726562 18.292969 L 7.703125 18.316406 L 5.722656 18.339844 L 5.699219 16.320312 L 3.679688 16.339844 L 3.65625 14.359375 L 3.636719 12.382812 L 5.660156 12.363281 L 5.636719 10.339844 L 7.617188 10.320312 L 11.65625 10.273438 L 13.71875 10.25 L 13.691406 8.1875 L 13.667969 6.167969 L 13.648438 4.1875 L 15.667969 4.167969 L 15.644531 2.148438 L 17.625 2.125 L 19.605469 2.105469 L 19.628906 4.125 L 21.648438 4.101562 L 21.667969 6.125 L 23.6875 6.101562 L 23.710938 8.117188 L 25.734375 8.097656 L 25.753906 10.117188 L 27.773438 10.09375 L 27.796875 12.113281 L 29.816406 12.09375 L 29.839844 14.070312 L 29.859375 16.050781 Z M 27.839844 16.074219 " fill-opacity="1" fill-rule="nonzero"/></g><path fill="#ff1515" d="M 21.890625 22.242188 L 23.90625 22.21875 L 23.886719 20.199219 L 21.867188 20.21875 L 19.847656 20.242188 L 19.871094 22.265625 L 17.847656 22.285156 L 17.828125 20.265625 L 17.78125 16.226562 L 15.761719 16.25 L 13.738281 16.269531 L 11.722656 16.292969 L 11.699219 14.273438 L 9.679688 14.292969 L 9.65625 12.273438 L 7.636719 12.296875 L 7.613281 10.277344 L 5.59375 10.296875 L 5.617188 12.320312 L 3.59375 12.339844 L 3.617188 14.363281 L 3.640625 16.382812 L 5.660156 16.359375 L 5.683594 18.378906 L 7.703125 18.359375 L 13.761719 18.289062 L 13.785156 20.308594 L 13.808594 22.332031 L 13.828125 24.351562 L 15.851562 24.328125 L 15.875 26.347656 L 19.914062 26.300781 L 19.890625 24.28125 L 21.910156 24.261719 Z M 21.890625 22.242188 " fill-opacity="1" fill-rule="nonzero"/></svg>