<svg xmlns="http://www.w3.org/2000/svg" xmlns:xlink="http://www.w3.org/1999/xlink" width="45" zoomAndPan="magnify" viewBox="0 0 33.75 30.000001" height="40" preserveAspectRatio="xMidYMid meet" version="1.0"><defs><clipPath id="7732360bab"><path d="M 1.167969 0 L 32.375 0 L 32.375 29.03125 L 1.167969 29.03125 Z M 1.167969 0 " clip-rule="nonzero"/></clipPath></defs><g clip-path="url(#7732360bab)"><path fill="#f6db6e" d="M 21.9375 18.667969 L 26.085938 18.667969 L 26.085938 22.816406 L 21.9375 22.816406 Z M 11.570312 22.816406 L 7.421875 22.816406 L 7.421875 18.667969 L 11.570312 18.667969 Z M 28.160156 29.039062 L 28.160156 26.964844 L 27.355469 26.964844 L 28.160156 26.964844 L 28.160156 16.59375 L 26.085938 16.59375 L 26.085938 14.519531 L 24.011719 14.519531 L 24.011719 12.445312 L 21.9375 12.445312 L 21.9375 10.375 L 19.863281 10.375 L 19.863281 8.300781 L 17.789062 8.300781 L 17.789062 8.625 L 17.789062 6.222656 L 15.71875 6.222656 L 15.71875 8.878906 L 15.71875 8.300781 L 13.644531 8.300781 L 13.644531 10.375 L 11.570312 10.375 L 11.570312 12.445312 L 9.496094 12.445312 L 9.496094 14.519531 L 7.421875 14.519531 L 7.421875 16.59375 L 5.347656 16.59375 L 5.347656 14.519531 L 7.421875 14.519531 L 7.421875 12.445312 L 6.835938 12.445312 L 9.496094 12.445312 L 9.496094 10.375 L 11.570312 10.375 L 11.570312 8.300781 L 13.644531 8.300781 L 13.644531 6.222656 L 13.328125 6.222656 L 15.71875 6.222656 L 15.71875 3.785156 L 15.71875 4.152344 L 17.789062 4.152344 L 17.789062 4.082031 L 17.789062 6.222656 L 20.597656 6.222656 L 19.863281 6.222656 L 19.863281 8.300781 L 21.9375 8.300781 L 21.9375 10.375 L 24.011719 10.375 L 24.011719 12.445312 L 26.265625 12.445312 L 26.085938 12.445312 L 26.085938 14.519531 L 28.160156 14.519531 L 28.160156 16.59375 L 30.234375 16.59375 L 30.234375 18.667969 L 32.308594 18.667969 L 32.308594 14.519531 L 30.234375 14.519531 L 30.234375 12.445312 L 27.390625 12.445312 L 28.160156 12.445312 L 28.160156 10.375 L 26.085938 10.375 L 26.085938 8.300781 L 24.011719 8.300781 L 24.011719 6.222656 L 21.679688 6.222656 L 21.9375 6.222656 L 21.9375 4.152344 L 19.863281 4.152344 L 19.863281 2.078125 L 17.789062 2.078125 L 17.789062 2.75 L 17.789062 0.00390625 L 15.71875 0.00390625 L 15.71875 2.886719 L 15.71875 2.078125 L 13.644531 2.078125 L 13.644531 4.152344 L 11.570312 4.152344 L 11.570312 6.222656 L 11.882812 6.222656 L 9.496094 6.222656 L 9.496094 8.300781 L 7.421875 8.300781 L 7.421875 10.375 L 5.347656 10.375 L 5.347656 12.445312 L 5.628906 12.445312 L 3.273438 12.445312 L 3.273438 14.519531 L 1.199219 14.519531 L 1.199219 18.667969 L 3.273438 18.667969 L 3.273438 16.59375 L 5.347656 16.59375 L 5.347656 26.964844 L 5.625 26.964844 L 5.347656 26.964844 L 5.347656 29.039062 L 13.644531 29.039062 L 13.644531 26.964844 L 13.46875 26.964844 L 13.644531 26.964844 L 13.644531 20.742188 L 15.71875 20.742188 L 15.71875 20.464844 L 15.71875 20.742188 L 17.789062 20.742188 L 17.789062 20.386719 L 17.789062 20.742188 L 19.859375 20.742188 L 19.863281 20.765625 L 19.863281 26.964844 L 20.410156 26.964844 L 19.863281 26.964844 L 19.863281 29.039062 L 21.9375 29.039062 L 21.9375 28.65625 L 21.9375 29.039062 L 28.160156 29.039062 " fill-opacity="1" fill-rule="nonzero"/></g></svg>