<svg xmlns="http://www.w3.org/2000/svg" xmlns:xlink="http://www.w3.org/1999/xlink" width="100" zoomAndPan="magnify" viewBox="0 0 75 63.749997" height="85" preserveAspectRatio="xMidYMid meet" version="1.0"><defs><clipPath id="887df46e8b"><path d="M 0.148438 3 L 68 3 L 68 63.5 L 0.148438 63.5 Z M 0.148438 3 " clip-rule="nonzero"/></clipPath><clipPath id="70ba196100"><path d="M 2 8 L 65 8 L 65 63.5 L 2 63.5 Z M 2 8 " clip-rule="nonzero"/></clipPath><clipPath id="d95cb5e7cf"><path d="M 12 31 L 61 31 L 61 63.5 L 12 63.5 Z M 12 31 " clip-rule="nonzero"/></clipPath><clipPath id="623e767f08"><path d="M 1 4 L 68 4 L 68 63.5 L 1 63.5 Z M 1 4 " clip-rule="nonzero"/></clipPath><clipPath id="aafb3128af"><path d="M 0.148438 3 L 68 3 L 68 63.5 L 0.148438 63.5 Z M 0.148438 3 " clip-rule="nonzero"/></clipPath><clipPath id="6597ddccbc"><path d="M 28 13 L 70 13 L 70 63.5 L 28 63.5 Z M 28 13 " clip-rule="nonzero"/></clipPath></defs><g clip-path="url(#887df46e8b)"><path fill="#ffffff" d="M 66.882812 41.039062 C 66.09375 46.925781 60.472656 53.917969 60.472656 53.917969 L 52.320312 63.488281 L 6.285156 63.488281 C 6.285156 63.488281 8.546875 60.535156 10.40625 57.441406 C 5.300781 54.191406 2.898438 50.652344 1.496094 47.429688 C 0.207031 44.449219 1.496094 38.835938 1.496094 38.835938 C 2.753906 34.734375 5.414062 31.382812 6.84375 29.640625 C 3.726562 24.160156 6.300781 9.941406 7.460938 8.519531 C 15.257812 7.410156 25.683594 16.03125 25.683594 16.03125 C 25.683594 16.03125 31.078125 14.476562 33.550781 14.332031 C 33.410156 9.988281 35.667969 6.316406 35.710938 3.667969 C 42.007812 4.101562 49.074219 11.066406 51.019531 16.359375 C 66.78125 24.621094 67.65625 35.152344 66.882812 41.039062 Z M 57.226562 51.816406 C 57.339844 49.484375 54.464844 47.988281 54.550781 51.140625 C 54.621094 54.292969 57.167969 53.011719 57.226562 51.816406 Z M 57.226562 51.816406 " fill-opacity="1" fill-rule="nonzero"/></g><g clip-path="url(#70ba196100)"><path fill="#efb07d" d="M 50.332031 63.488281 C 48.785156 57.386719 49.671875 46.21875 51.363281 44.96875 C 53.050781 43.714844 54.195312 45.199219 54.195312 45.199219 C 54.195312 45.199219 54.25 43.886719 55.824219 43.457031 C 57.398438 43.039062 58.429688 45.484375 58.429688 45.484375 C 58.429688 45.484375 59.699219 40.824219 62.621094 47.242188 C 65.539062 53.660156 64.824219 63.488281 64.824219 63.488281 C 64.824219 63.488281 54.066406 63.488281 50.332031 63.488281 Z M 24.652344 16.03125 C 21.308594 10.605469 10.679688 8.042969 7.789062 8.90625 C 3.398438 16.90625 5.828125 30.046875 5.828125 30.046875 C 5.828125 30.046875 3.855469 32.921875 2.753906 36.261719 C 5.5 40.519531 16.484375 46.652344 27.574219 37.960938 C 39.429688 28.679688 29.332031 15.527344 29.332031 15.527344 C 29.332031 15.527344 27.445312 15.136719 24.652344 16.03125 Z M 24.652344 16.03125 " fill-opacity="1" fill-rule="nonzero"/></g><g clip-path="url(#d95cb5e7cf)"><path fill="#ef5454" d="M 54.195312 45.183594 C 50.902344 42.203125 50.230469 46.621094 49.800781 49.269531 C 49.371094 51.917969 49.6875 59.542969 49.6875 59.542969 L 45.898438 63.5 L 37.113281 63.5 L 29.476562 58.523438 C 29.476562 58.523438 28.816406 53.660156 28.644531 48.621094 C 28.472656 43.585938 25.613281 43.960938 24.683594 45.082031 C 24.253906 43.242188 22.292969 43.558594 22.292969 43.558594 C 22.292969 43.558594 22.378906 40.5625 25.511719 38.191406 C 33.25 33.886719 40.230469 40.5625 40.230469 40.5625 C 40.230469 40.5625 45.394531 32.332031 52.335938 34.535156 C 59.273438 36.738281 57.414062 44.089844 57.414062 44.089844 C 56.054688 42.75 54.792969 44.03125 54.195312 45.183594 Z M 54.195312 45.183594 C 50.902344 42.203125 50.230469 46.621094 49.800781 49.269531 C 49.371094 51.917969 49.6875 59.542969 49.6875 59.542969 L 45.898438 63.5 L 37.113281 63.5 L 29.476562 58.523438 C 29.476562 58.523438 28.816406 53.660156 28.644531 48.621094 C 28.472656 43.585938 25.613281 43.960938 24.683594 45.082031 C 24.253906 43.242188 22.292969 43.558594 22.292969 43.558594 C 22.292969 43.558594 22.378906 40.5625 25.511719 38.191406 C 33.25 33.886719 40.230469 40.5625 40.230469 40.5625 C 40.230469 40.5625 45.394531 32.332031 52.335938 34.535156 C 59.273438 36.738281 57.414062 44.089844 57.414062 44.089844 C 56.054688 42.75 54.792969 44.03125 54.195312 45.183594 Z M 58.140625 32.074219 C 58.5 32.507812 58.613281 33.007812 58.414062 33.183594 C 58.199219 33.355469 57.753906 33.125 57.398438 32.691406 C 57.039062 32.261719 56.925781 31.757812 57.125 31.585938 C 57.339844 31.414062 57.785156 31.640625 58.140625 32.074219 Z M 56.082031 32.21875 C 56.441406 32.648438 56.554688 33.152344 56.355469 33.324219 C 56.152344 33.5 55.695312 33.269531 55.339844 32.835938 C 54.980469 32.40625 54.867188 31.902344 55.066406 31.730469 C 55.28125 31.554688 55.738281 31.773438 56.082031 32.21875 Z M 17.515625 38.550781 C 17.875 38.980469 17.988281 39.484375 17.789062 39.65625 C 17.585938 39.832031 17.128906 39.601562 16.773438 39.167969 C 16.414062 38.738281 16.300781 38.234375 16.5 38.058594 C 16.714844 37.886719 17.160156 38.117188 17.515625 38.550781 Z M 15.457031 38.679688 C 15.8125 39.109375 15.929688 39.613281 15.726562 39.785156 C 15.511719 39.960938 15.070312 39.730469 14.710938 39.296875 C 14.355469 38.867188 14.242188 38.363281 14.441406 38.191406 C 14.65625 38.03125 15.097656 38.246094 15.457031 38.679688 Z M 60.171875 31.886719 C 60.53125 32.320312 60.644531 32.824219 60.445312 32.996094 C 60.246094 33.167969 59.785156 32.9375 59.429688 32.507812 C 59.070312 32.074219 58.957031 31.570312 59.15625 31.398438 C 59.371094 31.238281 59.816406 31.457031 60.171875 31.886719 Z M 13.339844 38.824219 C 13.695312 39.253906 13.8125 39.757812 13.609375 39.929688 C 13.394531 40.105469 12.953125 39.875 12.59375 39.441406 C 12.238281 39.011719 12.125 38.507812 12.324219 38.332031 C 12.539062 38.175781 12.980469 38.390625 13.339844 38.824219 Z M 13.339844 38.824219 " fill-opacity="1" fill-rule="nonzero"/></g><g clip-path="url(#623e767f08)"><path fill="#ef5454" d="M 14.753906 21.410156 C 14.753906 21.410156 10.777344 24.363281 9.964844 26.605469 C 6.84375 20.03125 9.777344 12.128906 9.777344 12.128906 Z M 20.535156 44.96875 C 17.6875 42.175781 16.070312 47.671875 16.070312 47.671875 L 15.285156 48.96875 C 15.414062 48.40625 15.554688 47.875 15.683594 47.429688 C 8.660156 44.824219 8.445312 34.910156 9.761719 31.023438 C 6.359375 27.597656 5.957031 18.359375 5.957031 18.359375 C 5.65625 20.921875 5.371094 26.722656 5.929688 30.132812 C 2.667969 32.792969 1.523438 38.835938 1.523438 38.835938 L 1.523438 39.714844 L 1.921875 40.160156 C 1.921875 40.160156 0.765625 50.378906 12.980469 56.710938 C 11.679688 59.703125 9.332031 63.472656 9.332031 63.472656 C 10.320312 63.472656 16.84375 63.472656 17.316406 63.472656 C 17.117188 61.070312 17.617188 55.253906 18.046875 51.210938 C 18.472656 47.167969 20.164062 46.449219 20.792969 47.527344 C 21.492188 44.363281 23.296875 44.015625 23.296875 44.015625 C 22.695312 43.699219 21.179688 43.484375 20.535156 44.96875 Z M 66.324219 34.519531 C 66.324219 34.519531 66.324219 41.023438 61.417969 45.039062 C 63.132812 46.894531 63.878906 49.269531 63.878906 49.269531 C 63.878906 49.269531 69.285156 40.304688 66.324219 34.519531 Z M 37.113281 63.488281 L 28.929688 58.507812 L 29.261719 63.488281 Z M 45.898438 63.488281 L 50.332031 63.488281 L 49.6875 59.53125 M 37.570312 13.367188 C 37.570312 13.367188 36.671875 9.667969 36.296875 4.117188 C 34.496094 5.8125 33.582031 14.347656 33.582031 14.347656 Z M 56.496094 44.015625 C 56.496094 44.015625 55.167969 44.824219 54.867188 47.988281 C 54.421875 45.929688 52.378906 45.988281 52.304688 49.183594 C 52.234375 52.40625 52.605469 62.121094 53.265625 63.488281 C 50.332031 63.488281 50.261719 63.488281 50.261719 63.488281 C 50.261719 63.488281 49.101562 50.621094 50.558594 46.738281 C 52.019531 42.835938 54.207031 45.183594 54.207031 45.183594 C 54.207031 45.183594 54.695312 42.148438 56.496094 44.015625 Z M 56.496094 44.015625 " fill-opacity="0.3" fill-rule="nonzero"/></g><path fill="#ffffff" d="M 53.148438 34.894531 C 58.855469 36.433594 57.425781 44.074219 57.425781 44.074219 C 57.425781 44.074219 57.425781 44.074219 56.339844 43.398438 C 55.695312 33.457031 47.425781 35.339844 47.425781 35.339844 C 47.425781 35.339844 47.441406 33.371094 53.148438 34.894531 Z M 11.636719 9.425781 C 11.636719 9.425781 21.535156 12.734375 24.539062 17.886719 C 26.300781 17.152344 32.050781 15.410156 33.582031 15.023438 C 32.378906 15.09375 25.710938 16.03125 25.710938 16.03125 C 25.710938 16.03125 18.847656 9.8125 11.636719 9.425781 Z M 11.636719 9.425781 " fill-opacity="1" fill-rule="nonzero"/><g clip-path="url(#aafb3128af)"><path fill="#2b0806" d="M 52.921875 27.355469 C 53.0625 27.382812 53.191406 27.425781 53.308594 27.46875 C 53.691406 27.597656 53.777344 28.03125 53.621094 28.320312 C 53.863281 28.40625 54.078125 28.519531 54.292969 28.664062 C 54.75 29.007812 54.59375 29.6875 54.007812 29.730469 C 53.921875 29.730469 53.835938 29.742188 53.75 29.742188 C 53.820312 29.757812 53.90625 29.757812 53.992188 29.773438 C 54.707031 29.859375 54.722656 30.851562 53.992188 30.878906 C 51.375 31.082031 48.742188 31.441406 46.28125 32.390625 C 45.710938 32.621094 45.410156 31.84375 45.769531 31.457031 C 45.394531 31.5 45.023438 31.542969 44.652344 31.570312 C 44.125 31.597656 43.867188 30.734375 44.367188 30.503906 C 45.152344 30.144531 45.941406 29.871094 46.753906 29.640625 C 46.070312 29.730469 45.382812 29.828125 44.710938 29.945312 C 44.082031 30.058594 43.792969 29.339844 44.210938 28.980469 C 43.835938 28.777344 43.878906 28.089844 44.351562 27.914062 C 47.011719 26.964844 49.730469 26.332031 52.5625 26.734375 C 52.890625 26.765625 53.007812 27.082031 52.921875 27.355469 Z M 10.132812 26.996094 C 10.722656 26.246094 14.027344 22.132812 15.613281 21.683594 C 13.480469 15.066406 9.761719 12.117188 9.761719 12.117188 C 9.761719 12.851562 12.996094 19.179688 13.640625 21.3125 C 10.207031 23.613281 9.546875 27.226562 10.132812 26.996094 Z M 24.898438 30.867188 C 24.726562 30.835938 24.570312 30.824219 24.410156 30.808594 C 24.410156 30.519531 24.238281 30.230469 23.867188 30.246094 C 21.019531 30.304688 18.429688 31.414062 15.972656 32.792969 C 15.527344 33.054688 15.671875 33.65625 16.070312 33.816406 C 15.726562 34.191406 16.058594 34.9375 16.613281 34.75 C 17.273438 34.519531 17.929688 34.320312 18.589844 34.132812 C 17.875 34.476562 17.1875 34.851562 16.527344 35.28125 C 16.015625 35.644531 16.328125 36.464844 16.957031 36.320312 C 17.300781 36.234375 17.617188 36.148438 17.960938 36.046875 C 17.671875 36.464844 18.175781 37.152344 18.71875 36.851562 C 21.007812 35.511719 23.539062 34.734375 26.097656 34.132812 C 26.714844 33.960938 26.601562 32.980469 25.957031 33.007812 C 25.839844 33.007812 25.742188 33.023438 25.625 33.039062 C 25.726562 33.007812 25.8125 32.996094 25.914062 32.964844 C 26.355469 32.851562 26.484375 32.144531 26.054688 31.929688 C 25.796875 31.800781 25.542969 31.730469 25.253906 31.671875 C 25.371094 31.355469 25.253906 30.9375 24.898438 30.867188 Z M 34.582031 35.023438 C 35.441406 34.867188 36.167969 34.304688 36.757812 33.65625 C 37.613281 34.144531 38.574219 34.417969 39.53125 34.058594 C 40.53125 33.699219 40.976562 32.707031 41.046875 31.671875 C 41.105469 30.867188 40.445312 30.691406 40.289062 31.5 C 40.160156 32.1875 39.816406 32.878906 39.128906 33.066406 C 38.359375 33.269531 37.558594 32.691406 36.957031 32.277344 C 36.742188 32.132812 36.355469 32.160156 36.183594 32.375 C 35.769531 32.894531 35.296875 33.570312 34.667969 33.816406 C 33.808594 34.144531 32.695312 33.800781 32.019531 33.210938 C 31.421875 32.679688 30.933594 33.109375 31.492188 33.714844 C 32.378906 34.722656 33.308594 35.238281 34.582031 35.023438 Z M 51.71875 16.03125 C 47.84375 7.265625 38.429688 3.007812 35.683594 3.007812 C 33.464844 7.367188 32.9375 12.117188 32.78125 13.726562 C 30.632812 13.898438 28.144531 14.261719 25.699219 15.023438 C 24.269531 12.9375 14.613281 7.972656 7.472656 7.625 C 6.042969 8.402344 2.96875 21.714844 5.730469 29.5 C 5.097656 30.203125 4.398438 31.152344 3.726562 32.261719 C 2.652344 33.871094 0.148438 38.738281 0.148438 43.011719 C 0.148438 47.285156 1.894531 50.160156 1.894531 50.160156 C 3.3125 52.9375 5.800781 55.585938 9.835938 57.773438 C 7.976562 60.351562 5.441406 63.488281 5.441406 63.488281 L 7.445312 63.488281 C 7.445312 63.488281 10.992188 58.019531 11.652344 57.472656 C 10.605469 56.9375 5.441406 54.074219 2.824219 49.457031 C 2.683594 49.199219 2.539062 48.9375 2.425781 48.679688 C 0.980469 45.558594 1.453125 41.929688 2.039062 39.6875 C 3.855469 33.007812 6.988281 30.089844 6.988281 30.089844 C 6.988281 30.089844 3.855469 20.390625 8.019531 9.050781 C 12.179688 8.921875 20.121094 11.308594 25.253906 16.605469 C 30.605469 15.023438 38.101562 14.460938 38.859375 13.699219 C 38.859375 13.699219 38.714844 13.035156 34.496094 13.511719 C 34.582031 12.332031 34.769531 9.28125 36.285156 4.085938 C 48.085938 8.546875 50.546875 17.007812 50.546875 17.007812 C 50.546875 17.007812 58.726562 18.5625 64.265625 29.082031 C 68.929688 37.917969 65.078125 45.515625 63.507812 48.105469 C 63.363281 47.6875 63.21875 47.269531 63.105469 46.894531 C 61.691406 42.851562 59.171875 42.792969 58.457031 44.492188 C 58.414062 44.347656 58.355469 44.21875 58.285156 44.105469 C 59.34375 35.066406 52.804688 33.238281 48.613281 33.917969 C 45.695312 34.375 42.835938 36.160156 39.902344 39.917969 C 39.902344 39.917969 32.25 33.054688 25.339844 37.398438 C 22.792969 38.996094 21.480469 41.054688 21.148438 43.472656 C 20.847656 43.730469 20.621094 44.0625 20.476562 44.507812 C 19.761719 42.792969 17.246094 42.867188 15.828125 46.910156 C 14.425781 50.953125 12.667969 57.183594 13.710938 63.5 C 14.46875 63.5 14.769531 63.5 14.769531 63.5 C 14.769531 63.5 13.867188 57.976562 16.027344 49.773438 C 18.1875 41.570312 20.535156 45.714844 20.605469 46.21875 C 21.164062 43.425781 24.355469 43.140625 24.570312 45.917969 C 26.085938 43.945312 27.929688 44.519531 28.375 50.335938 C 28.800781 56.148438 28.085938 63.488281 28.085938 63.488281 L 29.261719 63.488281 C 29.261719 63.488281 29.476562 61.902344 29.648438 59.617188 C 31.59375 61.226562 33.59375 62.492188 35.441406 63.488281 L 38.230469 63.488281 C 35.953125 62.464844 33.152344 60.925781 30.460938 58.710938 C 30.21875 58.507812 29.988281 58.304688 29.746094 58.105469 C 29.902344 55.429688 29.960938 52.160156 29.589844 49.328125 C 28.816406 43.253906 26.214844 43.199219 24.941406 44.421875 C 24.652344 43.414062 23.753906 42.910156 22.824219 42.894531 C 23.308594 41.054688 24.484375 39.511719 26.515625 38.246094 C 32.449219 34.578125 40.175781 41.757812 40.175781 41.757812 C 43.265625 38.234375 45.566406 36.234375 48.15625 35.441406 C 52.605469 34.089844 57.082031 35.929688 56.898438 43.011719 C 55.753906 42.664062 54.367188 43.152344 54.007812 44.421875 C 52.75 43.210938 50.132812 43.269531 49.359375 49.328125 C 48.957031 52.550781 49.074219 56.335938 49.273438 59.199219 C 47.742188 60.996094 46.253906 62.464844 45.140625 63.5 L 46.984375 63.5 C 47.742188 62.753906 48.570312 61.890625 49.429688 60.925781 C 49.574219 62.492188 49.714844 63.5 49.714844 63.5 L 50.890625 63.5 C 50.890625 63.5 50.175781 56.164062 50.601562 50.347656 C 51.03125 44.535156 52.890625 43.960938 54.410156 45.929688 C 54.609375 43.152344 57.785156 43.425781 58.371094 46.234375 C 58.441406 45.714844 60.773438 41.585938 62.949219 49.789062 C 65.121094 57.988281 64.191406 63.5 64.191406 63.5 C 64.191406 63.5 64.492188 63.5 65.25 63.5 C 66.066406 58.578125 65.179688 53.703125 64.078125 49.886719 C 74.851562 32.921875 59.945312 18.621094 51.71875 16.03125 Z M 51.71875 16.03125 " fill-opacity="1" fill-rule="nonzero"/></g><path fill="#ef5454" d="M 68.800781 17.238281 C 65.667969 20.175781 61.488281 19.914062 61.488281 19.914062 C 61.488281 19.914062 60.160156 18.246094 59.6875 15.65625 C 59.128906 12.460938 60.273438 8.894531 63.089844 8.921875 C 65.550781 8.9375 64.90625 13.410156 64.90625 13.410156 C 65.980469 12.648438 67.796875 11.398438 69.128906 12.015625 C 69.902344 12.390625 70.660156 15.179688 68.800781 17.238281 Z M 56.296875 10.71875 C 54.996094 10.316406 53.519531 11.324219 52.535156 12.273438 C 52.535156 12.273438 52.691406 8.214844 50.332031 8.621094 C 47.613281 9.078125 46.699219 12.894531 47.398438 16.03125 C 47.972656 18.589844 49.34375 20.042969 49.34375 20.042969 C 49.34375 20.042969 53.378906 19.585938 56.253906 16.058594 C 58.785156 12.949219 57.054688 10.964844 56.296875 10.71875 Z M 71.128906 25.226562 C 70.816406 24.722656 70.042969 24.621094 69.457031 24.664062 C 69.457031 24.664062 70.660156 23.367188 69.773438 22.820312 C 68.742188 22.1875 67.355469 23.179688 66.710938 24.417969 C 66.179688 25.425781 66.210938 26.304688 66.210938 26.304688 C 66.210938 26.304688 67.667969 27.3125 69.613281 26.980469 C 71.316406 26.679688 71.300781 25.527344 71.128906 25.226562 Z M 71.128906 25.226562 " fill-opacity="1" fill-rule="nonzero"/><path fill="#2b0806" d="M 69.714844 11.597656 C 68.210938 10.894531 66.4375 11.726562 65.238281 12.578125 C 65.238281 12.578125 65.667969 8.128906 62.890625 8.101562 C 59.703125 8.074219 58.398438 12.101562 59.027344 15.714844 C 59.542969 18.648438 61.046875 20.519531 61.046875 20.519531 C 61.046875 20.519531 65.78125 20.808594 69.3125 17.484375 C 69.628906 17.195312 69.886719 16.921875 70.085938 16.632812 C 70.886719 15.46875 71.675781 12.535156 69.714844 11.597656 Z M 68.269531 17.082031 C 65.421875 19.757812 61.605469 19.527344 61.605469 19.527344 C 61.605469 19.527344 60.386719 18.015625 59.972656 15.640625 C 59.472656 12.734375 60.515625 9.484375 63.089844 9.496094 C 65.324219 9.511719 64.480469 13.84375 64.480469 13.84375 C 65.464844 13.152344 67.367188 11.742188 68.570312 12.304688 C 69.269531 12.664062 70.789062 14.707031 68.269531 17.082031 Z M 61.445312 0.992188 C 60.773438 0.863281 60.117188 1.410156 59.6875 1.929688 C 59.6875 1.929688 59.457031 0 58.3125 0.300781 C 56.996094 0.660156 56.839844 2.519531 57.414062 3.972656 C 57.882812 5.152344 58.671875 5.785156 58.671875 5.785156 C 58.671875 5.785156 60.632812 5.367188 61.789062 3.554688 C 62.847656 1.929688 61.832031 1.066406 61.445312 0.992188 Z M 70.171875 16.519531 C 70.84375 15.597656 71.359375 13.886719 70.6875 12.5625 C 70.113281 13.453125 70.171875 16.519531 70.171875 16.519531 Z M 70.171875 16.519531 " fill-opacity="1" fill-rule="nonzero"/><g clip-path="url(#6597ddccbc)"><path fill="#15172b" d="M 57.425781 44.089844 C 56.054688 42.765625 54.792969 43.425781 54.023438 44.421875 C 51.503906 43.414062 50.417969 46.003906 49.816406 49.269531 C 49.214844 52.550781 49.703125 59.542969 49.703125 59.542969 L 45.910156 63.5 L 37.128906 63.5 L 28.945312 58.523438 C 28.945312 58.523438 29.175781 52.9375 29.691406 50.074219 C 35.238281 55.242188 43.59375 51.167969 46.925781 44.390625 C 50.261719 37.613281 56.824219 41.054688 56.824219 41.054688 C 56.824219 41.054688 58.429688 42.234375 57.425781 44.089844 Z M 69.558594 15.355469 C 69.558594 15.355469 68.828125 13.28125 65.453125 14.949219 C 62.074219 16.605469 60.445312 15.726562 59.800781 13.441406 C 59.542969 16.160156 60.402344 18.621094 61.804688 19.929688 C 64.394531 19.929688 68.5 19.082031 69.558594 15.355469 Z M 69.558594 15.355469 " fill-opacity="0.15" fill-rule="nonzero"/></g></svg>